#N canvas 179 195 1101 496 12;
#X declare -path list-abs;
#X listbox 165 134 20 0 0 0 - - - 0;
#X listbox 42 350 20 0 0 0 - - - 0;
#X listbox 103 242 20 0 0 0 - - - 0;
#X obj 42 378 active-notes-to-midi;
#X obj 42 74 active-notes;
#X obj 42 50 pack f f;
#X obj 42 24 notein;
#X obj 103 270 active-notes-to-midi;
#N canvas 4 238 450 426 split-lo-mid-hi 0;
#X obj 57 46 inlet;
#X obj 57 87 list-splat 2;
#X obj 108 139 list-splat -2;
#X msg 150 87 list;
#X msg 208 139 list;
#X obj 57 201 outlet;
#X obj 108 201 outlet;
#X obj 208 201 outlet;
#X obj 232 43 declare -path list-abs;
#X text 248 64 (for list-splat);
#X connect 0 0 1 0;
#X connect 1 0 5 0;
#X connect 1 1 2 0;
#X connect 1 2 3 0;
#X connect 2 0 6 0;
#X connect 2 1 7 0;
#X connect 2 2 4 0;
#X connect 3 0 2 0;
#X connect 3 0 5 0;
#X connect 4 0 6 0;
#X connect 4 0 7 0;
#X restore 42 98 pd split-lo-mid-hi;
#X obj 42 426 noteout 4;
#X obj 42 402 unpack f f;
#X obj 103 294 unpack f f;
#X obj 103 318 noteout 7;
#X obj 165 186 unpack f f;
#X obj 165 210 noteout 1;
#X obj 320 36 else/keyboard 17 80 4 2 0 0 empty empty;
#X obj 320 397 else/keyboard 17 80 4 2 0 0 empty empty;
#X obj 320 289 else/keyboard 17 80 4 2 0 0 empty empty;
#X obj 320 181 else/keyboard 17 80 4 2 0 0 empty empty;
#X obj 320 131 else/display;
#X text 319 378 LOW note:;
#X text 318 162 HIGH note:;
#X text 317 268 MIDDLE notes:;
#X obj 165 162 active-notes-to-midi;
#X connect 3 0 10 0;
#X connect 3 0 16 0;
#X connect 4 0 8 0;
#X connect 4 0 19 0;
#X connect 5 0 4 0;
#X connect 5 0 15 0;
#X connect 6 0 5 0;
#X connect 6 1 5 1;
#X connect 7 0 11 0;
#X connect 7 0 17 0;
#X connect 8 0 1 0;
#X connect 8 0 3 0;
#X connect 8 1 2 0;
#X connect 8 1 7 0;
#X connect 8 2 0 0;
#X connect 8 2 23 0;
#X connect 10 0 9 0;
#X connect 10 1 9 1;
#X connect 11 0 12 0;
#X connect 11 1 12 1;
#X connect 13 0 14 0;
#X connect 13 1 14 1;
#X connect 23 0 13 0;
#X connect 23 0 18 0;
