#N canvas 589 128 406 525 12;
#X msg 89 96 \$2 \$1;
#X obj 89 120 unpack f f;
#X obj 148 329 t a;
#X obj 49 305 spigot;
#X obj 49 192 t f f;
#X obj 49 329 list prepend;
#X obj 81 280 > 0;
#X obj 49 256 pack f f;
#X obj 29 24 array define \$0-active-notes 128;
#X obj 89 144 array set \$0-active-notes;
#X obj 81 216 array get \$0-active-notes 0 1;
#X obj 29 48 inlet;
#X obj 29 362 list;
#X obj 29 386 outlet;
#X obj 29 72 t b b b a;
#N canvas 857 83 190 262 for-0-128 0;
#X obj 43 39 inlet;
#X obj 43 63 t b b;
#X obj 43 111 until;
#X obj 43 135 f;
#X obj 73 135 + 1;
#X obj 43 159 outlet;
#X obj 43 87 f 128;
#X obj 91 96 f 0;
#X connect 0 0 1 0;
#X connect 1 0 6 0;
#X connect 1 1 7 0;
#X connect 2 0 3 0;
#X connect 3 0 4 0;
#X connect 3 0 5 0;
#X connect 4 0 3 1;
#X connect 6 0 2 0;
#X connect 7 0 3 1;
#X restore 49 168 pd for-0-128;
#X connect 0 0 1 0;
#X connect 1 0 9 0;
#X connect 1 1 9 1;
#X connect 2 0 5 1;
#X connect 3 0 5 0;
#X connect 4 0 7 0;
#X connect 4 1 10 0;
#X connect 5 0 2 0;
#X connect 5 0 12 1;
#X connect 6 0 3 1;
#X connect 7 0 3 0;
#X connect 10 0 6 0;
#X connect 10 0 7 1;
#X connect 11 0 14 0;
#X connect 12 0 13 0;
#X connect 14 0 12 0;
#X connect 14 1 15 0;
#X connect 14 2 5 1;
#X connect 14 2 12 1;
#X connect 14 3 0 0;
#X connect 15 0 4 0;
