#N canvas 69 46 511 599 12;
#X declare -path list-abs;
#X obj 290 24 declare -path list-abs;
#X text 306 45 (for list-splat);
#X obj 51 240 array get \$0-active-notes 0 1;
#X obj 28 72 inlet;
#X obj 218 548 outlet;
#X obj 28 216 array get \$0-new-notes 0 1;
#X obj 171 329 !=;
#X obj 171 377 sel 1;
#X obj 171 425 f;
#X obj 74 192 s \$0-note;
#X obj 189 401 r \$0-note;
#X msg 171 449 \$1 0;
#X obj 51 390 sel 1;
#X obj 51 438 f;
#X obj 69 414 r \$0-note;
#X obj 51 462 pack f f;
#X obj 28 548 array set \$0-active-notes;
#X obj 28 168 t f f f;
#X obj 114 524 r \$0-note;
#X obj 51 486 s \$0-noteout;
#X obj 171 473 s \$0-noteout;
#X obj 218 524 r \$0-noteout;
#X obj 201 329 > 0;
#X obj 171 353 &&;
#X obj 51 366 &&;
#N canvas 18 216 450 300 write-new-notes 0;
#X obj 28 147 list-splat 2;
#X obj 72 171 list;
#X obj 28 171 t b l;
#X msg 60 195 \$2 \$1;
#X obj 60 219 unpack f f;
#X obj 60 243 array set \$0-new-notes;
#X obj 250 147 until;
#X obj 250 171 f;
#X obj 280 171 + 1;
#X obj 250 123 unpack f f;
#X msg 250 99 128 0;
#X obj 250 243 array set \$0-new-notes;
#X msg 250 195 0 \$1;
#X obj 250 219 unpack f f;
#X obj 28 26 inlet;
#X obj 28 50 t l b;
#X connect 0 0 2 0;
#X connect 0 1 1 1;
#X connect 1 0 0 0;
#X connect 2 0 1 0;
#X connect 2 1 3 0;
#X connect 3 0 4 0;
#X connect 4 0 5 0;
#X connect 4 1 5 1;
#X connect 6 0 7 0;
#X connect 7 0 8 0;
#X connect 7 0 12 0;
#X connect 8 0 7 1;
#X connect 9 0 6 0;
#X connect 9 1 7 1;
#X connect 10 0 9 0;
#X connect 12 0 13 0;
#X connect 13 0 11 0;
#X connect 13 1 11 1;
#X connect 14 0 15 0;
#X connect 15 0 0 0;
#X connect 15 1 10 0;
#X restore 60 120 pd write-new-notes;
#X obj 28 96 t b l;
#X obj 51 342 > 0;
#X obj 28 288 t f f f;
#X obj 28 24 array define \$0-active-notes 128;
#X obj 28 48 array define \$0-new-notes 128;
#N canvas 857 83 190 262 for-0-128 0;
#X obj 43 39 inlet;
#X obj 43 63 t b b;
#X obj 43 111 until;
#X obj 43 135 f;
#X obj 73 135 + 1;
#X obj 43 159 outlet;
#X obj 43 87 f 128;
#X obj 91 96 f 0;
#X connect 0 0 1 0;
#X connect 1 0 6 0;
#X connect 1 1 7 0;
#X connect 2 0 3 0;
#X connect 3 0 4 0;
#X connect 3 0 5 0;
#X connect 4 0 3 1;
#X connect 6 0 2 0;
#X connect 7 0 3 1;
#X restore 28 144 pd for-0-128;
#X connect 2 0 6 1;
#X connect 2 0 22 0;
#X connect 3 0 26 0;
#X connect 5 0 28 0;
#X connect 6 0 23 0;
#X connect 6 0 24 1;
#X connect 7 0 8 0;
#X connect 8 0 11 0;
#X connect 10 0 8 1;
#X connect 11 0 20 0;
#X connect 12 0 13 0;
#X connect 13 0 15 0;
#X connect 14 0 13 1;
#X connect 15 0 19 0;
#X connect 17 0 5 0;
#X connect 17 1 2 0;
#X connect 17 2 9 0;
#X connect 18 0 16 1;
#X connect 21 0 4 0;
#X connect 22 0 23 1;
#X connect 23 0 7 0;
#X connect 24 0 12 0;
#X connect 26 0 31 0;
#X connect 26 1 25 0;
#X connect 27 0 24 0;
#X connect 28 0 16 0;
#X connect 28 1 27 0;
#X connect 28 2 6 0;
#X connect 28 2 15 1;
#X connect 31 0 17 0;
