#N canvas 139 130 625 607 12;
#X text 188 406 list;
#X text 187 434 list;
#X text 72 405 INLET 1:;
#X text 72 434 OUTLET 1:;
#X obj 126 285 else/keyboard 17 80 2 2 0 0 empty empty;
#X obj 126 224 list.to.noteout;
#X text 69 43 [list.to.noteout] tracks active notes and their velocity. Useful for pitch-based voice allocation (extract lowest note \, highest note \, and similar).;
#X text 227 406 - list of active notes and velocity pairs;
#X text 227 434 - individual note messages as pitch/velocity pairs;
#X msg 57 244 flush;
#X msg 126 124 40 100 43 90 47 85;
#X msg 140 151 40 100;
#X text 195 148 subsequent message only triggers note-on/offs for new notes \, missing notes and notes that changed velocity;
#X text 78 501 See also:;
#X obj 168 500 notein.to.list;
#X obj 142 252 else/display;
#X msg 145 187 bang;
#X text 192 188 empty list shuts all notes off;
#X connect 5 0 4 0;
#X connect 5 0 15 0;
#X connect 9 0 4 0;
#X connect 10 0 5 0;
#X connect 11 0 5 0;
#X connect 16 0 5 0;
