#N canvas 655 95 625 607 12;
#X text 181 345 float;
#X obj 126 139 notein;
#X obj 126 174 notein.to.list;
#X obj 126 209 else/display;
#X msg 274 110 60 120;
#X text 188 363 list;
#X text 181 345 float;
#X text 181 383 float;
#X text 227 345 - the pitch part of a note message;
#X text 227 363 - a pair of pitch/velocity values from note messages;
#X text 187 414 list;
#X text 227 383 - the velocity part of a note message;
#X obj 40 139 r \$0.notes;
#X obj 274 174 s \$0.notes;
#X msg 274 135 63 110;
#X msg 334 135 63 20;
#X msg 389 135 63 0;
#X msg 360 110 60 0;
#X text 69 43 [notein.to.list] tracks active notes and their velocity. Useful for pitch-based voice allocation (extract lowest note \, highest note \, and similar).;
#X text 72 345 INLET 1:;
#X text 72 382 INLET 2:;
#X text 72 414 OUTLET 1:;
#X text 227 414 - pairs of active notes with velocity;
#N canvas 362 169 610 560 more-examples 0;
#X obj 81 38 keyboard 17 80 2 2 1 0 empty empty;
#X obj 81 151 notein.to.list;
#X obj 101 186 else/display;
#X obj 81 370 list.to.noteout;
#X msg 101 232 40 100 43 100 47 100 52 100;
#X msg 101 337 bang;
#X text 145 337 empty list ends all active notes;
#X msg 101 262 40 100 43 100 52 100;
#X text 256 261 notes with same velocity will not retrigger;
#X text 256 277 notes not listed will be shut if active;
#X text 248 307 a velocity change retriggers note;
#X obj 81 418 keyboard 17 80 2 2 1 0 empty empty;
#X msg 101 307 40 100 43 100 52 30;
#X connect 0 0 1 0;
#X connect 1 0 2 0;
#X connect 1 0 3 0;
#X connect 3 0 11 0;
#X connect 4 0 3 0;
#X connect 5 0 3 0;
#X connect 7 0 3 0;
#X connect 12 0 3 0;
#X restore 353 259 pd more-examples;
#N canvas 362 169 610 560 pitch-based-splitting 0;
#X obj 61 48 keyboard 17 80 2 2 1 0 empty empty;
#X obj 61 161 notein.to.list;
#X obj 61 320 list.to.noteout;
#X obj 61 368 keyboard 17 80 2 2 1 0 empty empty;
#X obj 61 195 list split 4;
#X text 164 197 route lowest 2 notes to left;
#X text 165 215 the other notes to right;
#X obj 321 320 list.to.noteout;
#X obj 321 368 keyboard 17 80 2 2 1 0 empty empty;
#X obj 61 249 t l;
#X connect 0 0 1 0;
#X connect 1 0 4 0;
#X connect 2 0 3 0;
#X connect 4 0 9 0;
#X connect 4 1 7 0;
#X connect 4 2 9 0;
#X connect 7 0 8 0;
#X connect 9 0 2 0;
#X restore 353 284 pd pitch-based-splitting;
#X text 84 486 See also:;
#X obj 187 485 list.to.noteout;
#X connect 1 0 2 0;
#X connect 1 1 2 1;
#X connect 2 0 3 0;
#X connect 4 0 13 0;
#X connect 12 0 2 0;
#X connect 14 0 13 0;
#X connect 15 0 13 0;
#X connect 16 0 13 0;
#X connect 17 0 13 0;
